<svg xmlns="http://www.w3.org/2000/svg" viewBox="0 0 24 24" enable-background="new 0 0 24 24" class="line-icon"><switch><g><path d="M19.59 18.41l-3.205-3.203a6.833 6.833 0 10-1.178 1.178l3.204 3.204a.833.833 0 001.178-1.178zm-4.886-3.808a.915.915 0 00-.053.049c-.042.044-.042.044-.08.092-.91.886-2.197 1.424-3.571 1.424a5.167 5.167 0 113.704-1.565z" fill="#6b7684"></path><defs><filter id="icn-searchfield-a" filterUnits="userSpaceOnUse" x="0" y="0" width="24" height="24"><feColorMatrix values="1 0 0 0 0 0 1 0 0 0 0 0 1 0 0 0 0 0 1 0"></feColorMatrix></filter></defs><mask maskUnits="userSpaceOnUse" x="0" y="0" width="24" height="24" id="icn-searchfield-b"><g filter="url(#icn-searchfield-a)"><path d="M15.336 14.902a5.833 5.833 0 10-.434.434l.229-.205.205-.23zm4.253 3.509a.833.833 0 01-1.178 1.178l-3.204-3.204a6.833 6.833 0 111.178-1.178l3.204 3.204zm-4.25-3.038l.019-.015-.018.015zm-.016.025a6.167 6.167 0 11.075-.075l-.038.032-.037.043zM16.167 11A5.167 5.167 0 1011 16.167c1.374 0 2.662-.538 3.571-1.424.038-.048.038-.048.08-.092a.915.915 0 01.054-.05A5.148 5.148 0 0016.167 11z" fill-rule="evenodd" clip-rule="evenodd" fill="#fff"></path></g></mask><g mask="url(#icn-searchfield-b)"><path fill="none" d="M0 0h24v24H0z"></path></g></g></switch></svg>